# xmcd CD database file
#
# Track frame offsets:
#	150
#	27430
#	43662
#	56393
#	73642
#	94067
#	113693
#	145554
#	166148
#	192353
#	222217
#	247915
#	261797
#	275315
#
# Disc length: 3990 seconds
#
# Revision: 0
# Processed by: cddbd v1.5.2PL0 Copyright (c) Steve Scherf et al.
# Submitted via: CDex 1.70beta2
#
DISCID=bd0f940e
DTITLE=Hot Tuna - Seva foundation benefit - San Francisco-CA - 13-02-94
DYEAR=1994
DGENRE=Blues
TTITLE0=Wavy gravy intro - Hesitation blues
TTITLE1=I'll be allright some day
TTITLE2=Trouble in mind
TTITLE3=SF bay blues
TTITLE4=Stop breaking down
TTITLE5=Big fish
TTITLE6=Drop down mama
TTITLE7=It's just my way
TTITLE8=Hit single #1
TTITLE9=Wang dans doodle
TTITLE10=Walkin' blues
TTITLE11=Take me to the river
TTITLE12=KC moan
TTITLE13=When I paint my masterpiece
EXTD=YEAR: 1994
EXTT0=
EXTT1=
EXTT2=
EXTT3=
EXTT4=
EXTT5=
EXTT6=
EXTT7=
EXTT8=
EXTT9=
EXTT10=
EXTT11=
EXTT12=
EXTT13=
PLAYORDER=
